<?xml version="1.0" encoding="UTF-8" standalone="no"?>
<!-- Created with Inkscape (http://www.inkscape.org/) -->

<svg
   xmlns:dc="http://purl.org/dc/elements/1.1/"
   xmlns:cc="http://creativecommons.org/ns#"
   xmlns:rdf="http://www.w3.org/1999/02/22-rdf-syntax-ns#"
   xmlns:svg="http://www.w3.org/2000/svg"
   xmlns="http://www.w3.org/2000/svg"
   xmlns:xlink="http://www.w3.org/1999/xlink"
   xmlns:sodipodi="http://sodipodi.sourceforge.net/DTD/sodipodi-0.dtd"
   xmlns:inkscape="http://www.inkscape.org/namespaces/inkscape"
   width="48"
   height="48"
   id="svg2"
   version="1.1"
   inkscape:version="0.48+devel r12476"
   sodipodi:docname="folder-network.svg">
  <defs
     id="defs4">
    <linearGradient
       inkscape:collect="always"
       id="linearGradient6601">
      <stop
         style="stop-color:#1ba4db;stop-opacity:1"
         offset="0"
         id="stop6603" />
      <stop
         style="stop-color:#3db5e7;stop-opacity:1"
         offset="1"
         id="stop6605" />
    </linearGradient>
    <linearGradient
       inkscape:collect="always"
       id="linearGradient6595">
      <stop
         style="stop-color:#26ade4;stop-opacity:1"
         offset="0"
         id="stop6597" />
      <stop
         style="stop-color:#4dbce9;stop-opacity:0"
         offset="1"
         id="stop6599" />
    </linearGradient>
    <linearGradient
       id="linearGradient6589"
       inkscape:collect="always">
      <stop
         id="stop6591"
         offset="0"
         style="stop-color:#26ade4;stop-opacity:1" />
      <stop
         id="stop6593"
         offset="1"
         style="stop-color:#4dbce9;stop-opacity:1" />
    </linearGradient>
    <linearGradient
       inkscape:collect="always"
       xlink:href="#linearGradient6601"
       id="linearGradient6635"
       gradientUnits="userSpaceOnUse"
       gradientTransform="translate(18.853035,64.999992)"
       x1="23.875"
       y1="-1052.4872"
       x2="23.875"
       y2="-1004.4247" />
    <linearGradient
       inkscape:collect="always"
       xlink:href="#linearGradient6589"
       id="linearGradient6637"
       gradientUnits="userSpaceOnUse"
       gradientTransform="matrix(1,0,0,-1,18.853035,-65)"
       x1="23.875"
       y1="-1052.3727"
       x2="23.875"
       y2="-1004.4247" />
    <linearGradient
       inkscape:collect="always"
       xlink:href="#linearGradient6595"
       id="linearGradient6639"
       gradientUnits="userSpaceOnUse"
       x1="0"
       y1="23.450195"
       x2="7"
       y2="23.450195"
       gradientTransform="translate(18.853031,939.3622)" />
  </defs>
  <sodipodi:namedview
     id="base"
     pagecolor="#ffffff"
     bordercolor="#666666"
     borderopacity="1.0"
     inkscape:pageopacity="0.0"
     inkscape:pageshadow="2"
     inkscape:zoom="9.7075193"
     inkscape:cx="19.004867"
     inkscape:cy="31.025666"
     inkscape:document-units="px"
     inkscape:current-layer="layer1"
     showgrid="false"
     inkscape:window-width="1366"
     inkscape:window-height="718"
     inkscape:window-x="0"
     inkscape:window-y="30"
     inkscape:window-maximized="1">
    <inkscape:grid
       type="xygrid"
       id="grid2995" />
  </sodipodi:namedview>
  <metadata
     id="metadata7">
    <rdf:RDF>
      <cc:Work
         rdf:about="">
        <dc:format>image/svg+xml</dc:format>
        <dc:type
           rdf:resource="http://purl.org/dc/dcmitype/StillImage" />
        <dc:title />
      </cc:Work>
    </rdf:RDF>
  </metadata>
  <g
     inkscape:label="Capa 1"
     inkscape:groupmode="layer"
     id="layer1"
     transform="translate(0,-1004.3622)">
    <g
       transform="translate(55.250001,1004.3622)"
       id="layer2"
       inkscape:label="Capa 2" />
    <g
       id="g4127"
       transform="translate(2.3547364e-7,1004.3622)">
      <g
         transform="translate(0,-1004.3622)"
         id="layer1-0"
         inkscape:label="Capa 1">
        <g
           transform="translate(-18.85303,65.000009)"
           id="g7180">
          <rect
             transform="scale(1,-1)"
             ry="1.9445436"
             y="-987.36218"
             x="18.853024"
             height="48"
             width="48"
             id="rect6607"
             style="fill:url(#linearGradient6635);fill-opacity:1;stroke:none" />
          <path
             style="fill:#000000;fill-opacity:0.23529412;stroke:none"
             d="m 23.553315,942.3622 c -0.942615,0 -1.700284,0.7576 -1.700284,1.7002 l 0,38.5995 c 0,0.9426 0.757669,1.7003 1.700284,1.7003 l 38.599426,0 c 0.94262,0 1.70029,-0.7577 1.70029,-1.7003 l 0,-38.5994 C 63.853031,943.1198 63.095361,942.3622 62.152741,942.3622 Z"
             id="path6609"
             inkscape:connector-curvature="0"
             sodipodi:nodetypes="sssssssss" />
          <path
             sodipodi:nodetypes="sssssssss"
             inkscape:connector-curvature="0"
             id="path6611"
             d="m 24.472349,943.3622 c -0.897728,0 -1.619318,0.7215 -1.619318,1.6192 l 0,36.7615 c 0,0.8977 0.72159,1.6193 1.619318,1.6193 l 36.761362,0 c 0.89773,0 1.61932,-0.7216 1.61932,-1.6193 l 0,-36.7614 C 62.853031,944.0837 62.131441,943.3622 61.233711,943.3622 Z"
             style="fill:#fafafa;fill-opacity:1;stroke:none" />
          <path
             sodipodi:nodetypes="cscscssssccccccc"
             inkscape:connector-curvature="0"
             style="fill:#000000;fill-opacity:0.05882353;stroke:none"
             d="m 21.998343,939.3622 c -1.077277,0 -1.945312,0.868 -1.945312,1.9453 l 0,40.0547 0,2.9544 c 0,0.5386 0.216883,1.0255 0.568359,1.3769 0.351476,0.3515 0.838315,0.5684 1.376953,0.5684 l 33.554688,0 c 0.4155,0 0.79137,-0.1664 1.0625,-0.4375 0.27112,-0.2711 0.4375,-0.647 0.4375,-1.0625 l 0,-12.3216 0,-12.1555 3.55859,-3.5607 c 0.29381,-0.2938 0.44141,-0.677 0.44141,-1.0605 l 0,0 L 61.053031,939.3642 Z"
             id="path6613" />
          <path
             sodipodi:nodetypes="cscscssssccccccc"
             id="path6615"
             d="m 21.598343,939.3622 c -1.077277,0 -1.945312,0.868 -1.945312,1.9453 l 0,40.0547 0,2.9544 c 0,0.5386 0.216883,1.0255 0.568359,1.3769 0.351476,0.3515 0.838315,0.5684 1.376953,0.5684 l 33.554688,0 c 0.4155,0 0.79137,-0.1664 1.0625,-0.4375 0.27112,-0.2711 0.4375,-0.647 0.4375,-1.0625 l 0,-12.3216 0,-12.1555 3.55859,-3.5607 c 0.29381,-0.2938 0.44141,-0.677 0.44141,-1.0605 l 0,0 L 60.653031,939.3642 Z"
             style="fill:#000000;fill-opacity:0.11764706;stroke:none"
             inkscape:connector-curvature="0" />
          <path
             id="path6617"
             d="m 22.853031,979.956 0,1.7812 c 0,0.8977 0.727272,1.625 1.625,1.625 l 36.75,0 c 0.89773,0 1.625,-0.7273 1.625,-1.625 l 0,-1.7812 c 0,0.8977 -0.72727,1.5937 -1.625,1.5937 l -36.75,0 C 23.580303,981.5497 22.853031,980.8537 22.853031,979.956 Z"
             style="fill:#000000;fill-opacity:0.31372549;stroke:none"
             inkscape:connector-curvature="0" />
          <path
             id="path6619"
             d="m 22.853031,981.1435 0,0.5937 c 0,0.8977 0.727272,1.625 1.625,1.625 l 36.75,0 c 0.89773,0 1.625,-0.7273 1.625,-1.625 l 0,-0.5937 c 0,0.8977 -0.72727,1.625 -1.625,1.625 l -36.75,0 C 23.580303,982.7685 22.853031,982.0412 22.853031,981.1435 Z"
             style="fill:#000000;fill-opacity:0.31372549;stroke:none"
             inkscape:connector-curvature="0" />
          <path
             sodipodi:nodetypes="cscscssssccccccc"
             inkscape:connector-curvature="0"
             style="fill:#000000;fill-opacity:0.23529412;stroke:none"
             d="m 21.198343,939.3622 c -1.077277,0 -1.945312,0.868 -1.945312,1.9453 l 0,40.0547 0,2.9544 c 0,0.5386 0.216883,1.0255 0.568359,1.3769 0.351476,0.3515 0.838315,0.5684 1.376953,0.5684 l 33.554688,0 c 0.4155,0 0.79137,-0.1664 1.0625,-0.4375 0.27112,-0.2711 0.4375,-0.647 0.4375,-1.0625 l 0,-12.3216 0,-12.1555 3.55859,-3.5607 c 0.29381,-0.2938 0.44141,-0.677 0.44141,-1.0605 l 0,0 L 60.253031,939.3642 Z"
             id="path6621" />
          <path
             sodipodi:nodetypes="sscsssssscccsccs"
             inkscape:connector-curvature="0"
             id="path6623"
             d="m 20.798343,939.3622 c -1.077277,0 -1.945312,0.868 -1.945312,1.9453 l 0,40.0547 0,2.9543 c 0,0.5387 0.216883,1.0255 0.568359,1.377 0.351476,0.3515 0.838315,0.5684 1.376953,0.5684 l 33.554688,0 c 0.4155,0 0.79137,-0.1664 1.0625,-0.4375 0.27112,-0.2712 0.4375,-0.647 0.4375,-1.0625 l 0,-12.3216 0,-12.3554 3.55859,-3.5606 c 0.29381,-0.2938 0.44141,-0.6771 0.44141,-1.0605 l 0,0 L 59.853031,939.3622 Z"
             style="fill:url(#linearGradient6637);fill-opacity:1;stroke:none" />
          <path
             id="path6625"
             d="m 20.798343,939.3622 c -1.077277,0 -1.945312,0.868 -1.945312,1.9453 l 0,40.0547 0,2.9551 c 0,0.5386 0.216883,1.0255 0.568359,1.3769 0.351476,0.3515 0.838315,0.5684 1.376953,0.5684 l 5.054688,0 0,-46.9004 L 20.798343,939.3622 Z"
             style="opacity:0.2;fill:url(#linearGradient6639);fill-opacity:1;stroke:none"
             inkscape:connector-curvature="0" />
          <g
             id="g6627"
             transform="translate(18.853031,-65)">
            <path
               id="path6629"
               d="m 2.5546916,1005.0185 c -0.9170885,0 -1.67114682,0.6395 -1.84375002,1.5 0.33561202,-0.2799 0.77451212,-0.4375 1.24999992,-0.4375 l 44.1250005,0 c 0.475488,0 0.914388,0.1576 1.25,0.4375 -0.172603,-0.8605 -0.926662,-1.5 -1.84375,-1.5 L 2.5546916,1005.0185 Z"
               style="fill:#ffffff;fill-opacity:0.5372549;stroke:none"
               inkscape:connector-curvature="0" />
            <path
               id="path6631"
               d="m 48.000005,1049.3622 0,1.0625 c 0,1.0773 -0.860223,1.9375 -1.9375,1.9375 l -44.1250008,0 c -1.077277,0 -1.9375,-0.8602 -1.9375,-1.9375 l 0,-1.0625 c 0,1.0773 0.860223,1.9375 1.9375,1.9375 l 44.1250008,0 C 47.139782,1051.2997 48.000005,1050.4395 48.000005,1049.3622 Z"
               style="fill:#000000;fill-opacity:1;stroke:none"
               inkscape:connector-curvature="0" />
            <path
               id="path6633"
               d="m 1.9375047,1004.3622 c -1.077277,0 -1.9375000044434,0.8602 -1.9375000044434,1.9375 l 0,43.0625 c 0,0.7934 0.4800240044434,1.449 1.1562500044434,1.75 -0.309342,-0.3333 -0.5,-0.7824 -0.5,-1.2812 l 0,-42.9375 c 0,-1.0482 0.826899,-1.875 1.875,-1.875 l 42.9375003,0 c 1.048101,0 1.875,0.8268 1.875,1.875 l 0,42.9375 c 0,0.4988 -0.190658,0.9479 -0.5,1.2812 0.676226,-0.301 1.15625,-0.9566 1.15625,-1.75 l 0,-43.0625 c 0,-1.0773 -0.860223,-1.9375 -1.9375,-1.9375 L 1.9375047,1004.3622 Z"
               style="fill:#000000;fill-opacity:0.39215686;stroke:none"
               inkscape:connector-curvature="0" />
          </g>
        </g>
      </g>
      <g
         inkscape:label="Capa 2"
         id="layer2-6" />
    </g>
    <path
       style="fill:#126d91;fill-opacity:1;stroke:none"
       d="M 15 22.5 L 15 25.5 L 33 25.5 L 33 22.5 L 15 22.5 z M 24 23.5 L 26 23.5 L 26 24.5 L 24 24.5 L 24 23.5 z M 28 23.5 L 30 23.5 L 30 24.5 L 28 24.5 L 28 23.5 z M 15 30 L 15 33 L 33 33 L 33 30 L 15 30 z M 24 31 L 26 31 L 26 32 L 24 32 L 24 31 z M 28 31 L 30 31 L 30 32 L 28 32 L 28 31 z "
       transform="translate(0,1004.3622)"
       id="rect4174" />
    <path
       style="fill:#126d91;fill-opacity:1;stroke:none"
       d="M 15 15 L 15 18 L 33 18 L 33 15 L 15 15 z M 19 16 L 30 16 L 30 17 L 19 17 L 19 16 z "
       transform="translate(0,1004.3622)"
       id="rect4176" />
  </g>
</svg>
