<?xml version="1.0" encoding="UTF-8" standalone="no"?>
<!-- Created with Inkscape (http://www.inkscape.org/) -->

<svg
   xmlns:dc="http://purl.org/dc/elements/1.1/"
   xmlns:cc="http://creativecommons.org/ns#"
   xmlns:rdf="http://www.w3.org/1999/02/22-rdf-syntax-ns#"
   xmlns:svg="http://www.w3.org/2000/svg"
   xmlns="http://www.w3.org/2000/svg"
   xmlns:xlink="http://www.w3.org/1999/xlink"
   xmlns:sodipodi="http://sodipodi.sourceforge.net/DTD/sodipodi-0.dtd"
   xmlns:inkscape="http://www.inkscape.org/namespaces/inkscape"
   width="48"
   height="48"
   id="svg4224"
   version="1.1"
   inkscape:version="0.48+devel r12269"
   sodipodi:docname="application-x-sharedlib.svg">
  <defs
     id="defs4226">
    <linearGradient
       id="linearGradient943">
      <stop
         id="stop945"
         offset="0"
         style="stop-color:#000000;stop-opacity:1" />
      <stop
         id="stop947"
         offset="1"
         style="stop-color:#1a1a1a;stop-opacity:1" />
    </linearGradient>
    <linearGradient
       y2="13.07393"
       x2="11.579766"
       y1="21.890017"
       x1="20.395853"
       gradientTransform="matrix(-1,0,0,1,47.99942,1004.3623)"
       gradientUnits="userSpaceOnUse"
       id="linearGradient6280"
       xlink:href="#linearGradient6288"
       inkscape:collect="always" />
    <linearGradient
       inkscape:collect="always"
       id="linearGradient6288">
      <stop
         style="stop-color:#000000;stop-opacity:0.13080169"
         offset="0"
         id="stop6290" />
      <stop
         style="stop-color:#ffffff;stop-opacity:0;"
         offset="1"
         id="stop6292" />
    </linearGradient>
    <linearGradient
       gradientUnits="userSpaceOnUse"
       y2="13.07393"
       x2="11.019455"
       y1="13.07393"
       x1="23.533073"
       id="linearGradient6268"
       xlink:href="#linearGradient6262"
       inkscape:collect="always"
       gradientTransform="translate(-5.8e-4,1004.3623)" />
    <linearGradient
       id="linearGradient6262"
       inkscape:collect="always">
      <stop
         id="stop6264"
         offset="0"
         style="stop-color:#ffffff;stop-opacity:0.25738397" />
      <stop
         id="stop6266"
         offset="1"
         style="stop-color:#ffffff;stop-opacity:0;" />
    </linearGradient>
    <linearGradient
       inkscape:collect="always"
       xlink:href="#linearGradient6282"
       id="linearGradient942"
       gradientUnits="userSpaceOnUse"
       gradientTransform="matrix(1,0,0,-1,-5.8e-4,1052.3623)"
       x1="17.60643"
       y1="19.660906"
       x2="11.019455"
       y2="13.07393" />
    <linearGradient
       inkscape:collect="always"
       id="linearGradient6282">
      <stop
         style="stop-color:#000000;stop-opacity:0.10970464"
         offset="0"
         id="stop6284" />
      <stop
         style="stop-color:#ffffff;stop-opacity:0;"
         offset="1"
         id="stop6286" />
    </linearGradient>
    <linearGradient
       inkscape:collect="always"
       xlink:href="#linearGradient6262"
       id="linearGradient924"
       gradientUnits="userSpaceOnUse"
       gradientTransform="matrix(-1,0,0,1,47.99942,1027.206)"
       x1="23.533073"
       y1="13.07393"
       x2="11.579766"
       y2="13.07393" />
    <linearGradient
       gradientTransform="translate(-64.89343,-3.27415)"
       gradientUnits="userSpaceOnUse"
       y2="-1001.0899"
       x2="92.14286"
       y1="-1049.092"
       x1="92.14286"
       id="linearGradient58"
       xlink:href="#linearGradient943"
       inkscape:collect="always" />
  </defs>
  <sodipodi:namedview
     id="base"
     pagecolor="#ffffff"
     bordercolor="#666666"
     borderopacity="1.0"
     inkscape:pageopacity="0.0"
     inkscape:pageshadow="2"
     inkscape:zoom="11.2"
     inkscape:cx="32.370519"
     inkscape:cy="24.407865"
     inkscape:document-units="px"
     inkscape:current-layer="layer1"
     showgrid="false"
     width="0px"
     height="0px"
     fit-margin-top="0"
     fit-margin-left="0"
     fit-margin-right="0"
     fit-margin-bottom="0"
     inkscape:window-width="1366"
     inkscape:window-height="716"
     inkscape:window-x="0"
     inkscape:window-y="28"
     inkscape:window-maximized="1" />
  <metadata
     id="metadata4229">
    <rdf:RDF>
      <cc:Work
         rdf:about="">
        <dc:format>image/svg+xml</dc:format>
        <dc:type
           rdf:resource="http://purl.org/dc/dcmitype/StillImage" />
        <dc:title />
      </cc:Work>
    </rdf:RDF>
  </metadata>
  <g
     inkscape:label="Capa 1"
     inkscape:groupmode="layer"
     id="layer1"
     transform="translate(0,-1004.3622)">
    <rect
       style="fill:url(#linearGradient58);fill-opacity:1;stroke:none"
       id="rect2991-1-7-3"
       width="48"
       height="48"
       x="9.9999997e-06"
       y="-1052.3622"
       ry="1.9445436"
       transform="scale(1,-1)" />
    <g
       id="g932">
      <g
         style="fill:#ffffff"
         transform="matrix(0.21052631,0,0,0.21052631,7.1578956,799.23333)"
         id="g844">
        <path
           inkscape:connector-curvature="0"
           id="path838"
           style="font-size:40px;font-style:normal;font-variant:normal;font-weight:normal;font-stretch:normal;line-height:125%;letter-spacing:0px;word-spacing:0px;fill:#ffffff;fill-opacity:1;stroke:none;font-family:Game Over;-inkscape-font-specification:Game Over"
           d="m 18.666666,1040.8066 0,-24.8888 -7.111111,0 0,24.8888 L 18.666666,1040.8066 z m -10.6666655,3.5556 0,-3.5556 -3.555556,0 0,-24.8888 3.555556,0 0,-3.5556 14.2222215,0 0,3.5556 3.555555,0 0,24.8888 -3.555555,0 0,3.5556 L 8.0000005,1044.3622 Z" />
        <path
           inkscape:connector-curvature="0"
           id="path840"
           style="font-size:40px;font-style:normal;font-variant:normal;font-weight:normal;font-stretch:normal;line-height:125%;letter-spacing:0px;word-spacing:0px;fill:#ffffff;fill-opacity:1;stroke:none;font-family:Game Over;-inkscape-font-specification:Game Over"
           d="m 29.333334,1019.4733 0,-3.5555 3.555554,0 0,3.5555 L 29.333334,1019.4733 z m 7.111111,24.8889 0,-28.4444 -3.555557,0 0,-3.5556 10.666667,0 0,32 L 36.444445,1044.3622 Z" />
      </g>
      <g
         style="fill:#ffffff"
         id="g848"
         transform="matrix(0.21052631,0,0,0.21052631,7.1578956,807.65437)">
        <path
           d="m 18.666666,1040.8066 0,-24.8888 -7.111111,0 0,24.8888 L 18.666666,1040.8066 z m -10.6666655,3.5556 0,-3.5556 -3.555556,0 0,-24.8888 3.555556,0 0,-3.5556 14.2222215,0 0,3.5556 3.555555,0 0,24.8888 -3.555555,0 0,3.5556 L 8.0000005,1044.3622 Z"
           style="font-size:40px;font-style:normal;font-variant:normal;font-weight:normal;font-stretch:normal;line-height:125%;letter-spacing:0px;word-spacing:0px;fill:#ffffff;fill-opacity:1;stroke:none;font-family:Game Over;-inkscape-font-specification:Game Over"
           id="path850"
           inkscape:connector-curvature="0" />
        <path
           d="m 29.333334,1019.4733 0,-3.5555 3.555554,0 0,3.5555 L 29.333334,1019.4733 z m 7.111111,24.8889 0,-28.4444 -3.555557,0 0,-3.5556 10.666667,0 0,32 L 36.444445,1044.3622 Z"
           style="font-size:40px;font-style:normal;font-variant:normal;font-weight:normal;font-stretch:normal;line-height:125%;letter-spacing:0px;word-spacing:0px;fill:#ffffff;fill-opacity:1;stroke:none;font-family:Game Over;-inkscape-font-specification:Game Over"
           id="path852"
           inkscape:connector-curvature="0" />
      </g>
      <g
         style="fill:#ffffff"
         transform="matrix(0.21052631,0,0,0.21052631,7.1578956,816.07543)"
         id="g854">
        <path
           inkscape:connector-curvature="0"
           id="path856"
           style="font-size:40px;font-style:normal;font-variant:normal;font-weight:normal;font-stretch:normal;line-height:125%;letter-spacing:0px;word-spacing:0px;fill:#ffffff;fill-opacity:1;stroke:none;font-family:Game Over;-inkscape-font-specification:Game Over"
           d="m 18.666666,1040.8066 0,-24.8888 -7.111111,0 0,24.8888 L 18.666666,1040.8066 z m -10.6666655,3.5556 0,-3.5556 -3.555556,0 0,-24.8888 3.555556,0 0,-3.5556 14.2222215,0 0,3.5556 3.555555,0 0,24.8888 -3.555555,0 0,3.5556 L 8.0000005,1044.3622 Z" />
        <path
           inkscape:connector-curvature="0"
           id="path858"
           style="font-size:40px;font-style:normal;font-variant:normal;font-weight:normal;font-stretch:normal;line-height:125%;letter-spacing:0px;word-spacing:0px;fill:#ffffff;fill-opacity:1;stroke:none;font-family:Game Over;-inkscape-font-specification:Game Over"
           d="m 29.333334,1019.4733 0,-3.5555 3.555554,0 0,3.5555 L 29.333334,1019.4733 z m 7.111111,24.8889 0,-28.4444 -3.555557,0 0,-3.5556 10.666667,0 0,32 L 36.444445,1044.3622 Z" />
      </g>
      <g
         style="fill:#ffffff"
         id="g860"
         transform="matrix(0.21052631,0,0,0.21052631,7.1578956,824.49648)">
        <path
           d="m 18.666666,1040.8066 0,-24.8888 -7.111111,0 0,24.8888 L 18.666666,1040.8066 z m -10.6666655,3.5556 0,-3.5556 -3.555556,0 0,-24.8888 3.555556,0 0,-3.5556 14.2222215,0 0,3.5556 3.555555,0 0,24.8888 -3.555555,0 0,3.5556 L 8.0000005,1044.3622 Z"
           style="font-size:40px;font-style:normal;font-variant:normal;font-weight:normal;font-stretch:normal;line-height:125%;letter-spacing:0px;word-spacing:0px;fill:#ffffff;fill-opacity:1;stroke:none;font-family:Game Over;-inkscape-font-specification:Game Over"
           id="path862"
           inkscape:connector-curvature="0" />
        <path
           d="m 29.333334,1019.4733 0,-3.5555 3.555554,0 0,3.5555 L 29.333334,1019.4733 z m 7.111111,24.8889 0,-28.4444 -3.555557,0 0,-3.5556 10.666667,0 0,32 L 36.444445,1044.3622 Z"
           style="font-size:40px;font-style:normal;font-variant:normal;font-weight:normal;font-stretch:normal;line-height:125%;letter-spacing:0px;word-spacing:0px;fill:#ffffff;fill-opacity:1;stroke:none;font-family:Game Over;-inkscape-font-specification:Game Over"
           id="path864"
           inkscape:connector-curvature="0" />
      </g>
      <g
         style="fill:#ffffff"
         id="g884"
         transform="matrix(0.21052631,0,0,0.21052631,18.947369,799.23333)">
        <path
           d="m 18.666666,1040.8066 0,-24.8888 -7.111111,0 0,24.8888 L 18.666666,1040.8066 z m -10.6666655,3.5556 0,-3.5556 -3.555556,0 0,-24.8888 3.555556,0 0,-3.5556 14.2222215,0 0,3.5556 3.555555,0 0,24.8888 -3.555555,0 0,3.5556 L 8.0000005,1044.3622 Z"
           style="font-size:40px;font-style:normal;font-variant:normal;font-weight:normal;font-stretch:normal;line-height:125%;letter-spacing:0px;word-spacing:0px;fill:#ffffff;fill-opacity:1;stroke:none;font-family:Game Over;-inkscape-font-specification:Game Over"
           id="path886"
           inkscape:connector-curvature="0" />
        <path
           d="m 29.333334,1019.4733 0,-3.5555 3.555554,0 0,3.5555 L 29.333334,1019.4733 z m 7.111111,24.8889 0,-28.4444 -3.555557,0 0,-3.5556 10.666667,0 0,32 L 36.444445,1044.3622 Z"
           style="font-size:40px;font-style:normal;font-variant:normal;font-weight:normal;font-stretch:normal;line-height:125%;letter-spacing:0px;word-spacing:0px;fill:#ffffff;fill-opacity:1;stroke:none;font-family:Game Over;-inkscape-font-specification:Game Over"
           id="path888"
           inkscape:connector-curvature="0" />
      </g>
      <g
         style="fill:#ffffff"
         transform="matrix(0.21052631,0,0,0.21052631,18.947369,807.65437)"
         id="g890">
        <path
           inkscape:connector-curvature="0"
           id="path892"
           style="font-size:40px;font-style:normal;font-variant:normal;font-weight:normal;font-stretch:normal;line-height:125%;letter-spacing:0px;word-spacing:0px;fill:#ffffff;fill-opacity:1;stroke:none;font-family:Game Over;-inkscape-font-specification:Game Over"
           d="m 18.666666,1040.8066 0,-24.8888 -7.111111,0 0,24.8888 L 18.666666,1040.8066 z m -10.6666655,3.5556 0,-3.5556 -3.555556,0 0,-24.8888 3.555556,0 0,-3.5556 14.2222215,0 0,3.5556 3.555555,0 0,24.8888 -3.555555,0 0,3.5556 L 8.0000005,1044.3622 Z" />
        <path
           inkscape:connector-curvature="0"
           id="path894"
           style="font-size:40px;font-style:normal;font-variant:normal;font-weight:normal;font-stretch:normal;line-height:125%;letter-spacing:0px;word-spacing:0px;fill:#ffffff;fill-opacity:1;stroke:none;font-family:Game Over;-inkscape-font-specification:Game Over"
           d="m 29.333334,1019.4733 0,-3.5555 3.555554,0 0,3.5555 L 29.333334,1019.4733 z m 7.111111,24.8889 0,-28.4444 -3.555557,0 0,-3.5556 10.666667,0 0,32 L 36.444445,1044.3622 Z" />
      </g>
      <g
         style="fill:#ffffff"
         id="g896"
         transform="matrix(0.21052631,0,0,0.21052631,18.947369,816.07543)">
        <path
           d="m 18.666666,1040.8066 0,-24.8888 -7.111111,0 0,24.8888 L 18.666666,1040.8066 z m -10.6666655,3.5556 0,-3.5556 -3.555556,0 0,-24.8888 3.555556,0 0,-3.5556 14.2222215,0 0,3.5556 3.555555,0 0,24.8888 -3.555555,0 0,3.5556 L 8.0000005,1044.3622 Z"
           style="font-size:40px;font-style:normal;font-variant:normal;font-weight:normal;font-stretch:normal;line-height:125%;letter-spacing:0px;word-spacing:0px;fill:#ffffff;fill-opacity:1;stroke:none;font-family:Game Over;-inkscape-font-specification:Game Over"
           id="path898"
           inkscape:connector-curvature="0" />
        <path
           d="m 29.333334,1019.4733 0,-3.5555 3.555554,0 0,3.5555 L 29.333334,1019.4733 z m 7.111111,24.8889 0,-28.4444 -3.555557,0 0,-3.5556 10.666667,0 0,32 L 36.444445,1044.3622 Z"
           style="font-size:40px;font-style:normal;font-variant:normal;font-weight:normal;font-stretch:normal;line-height:125%;letter-spacing:0px;word-spacing:0px;fill:#ffffff;fill-opacity:1;stroke:none;font-family:Game Over;-inkscape-font-specification:Game Over"
           id="path900"
           inkscape:connector-curvature="0" />
      </g>
      <g
         style="fill:#ffffff"
         transform="matrix(0.21052631,0,0,0.21052631,18.947369,824.49648)"
         id="g902">
        <path
           inkscape:connector-curvature="0"
           id="path904"
           style="font-size:40px;font-style:normal;font-variant:normal;font-weight:normal;font-stretch:normal;line-height:125%;letter-spacing:0px;word-spacing:0px;fill:#ffffff;fill-opacity:1;stroke:none;font-family:Game Over;-inkscape-font-specification:Game Over"
           d="m 18.666666,1040.8066 0,-24.8888 -7.111111,0 0,24.8888 L 18.666666,1040.8066 z m -10.6666655,3.5556 0,-3.5556 -3.555556,0 0,-24.8888 3.555556,0 0,-3.5556 14.2222215,0 0,3.5556 3.555555,0 0,24.8888 -3.555555,0 0,3.5556 L 8.0000005,1044.3622 Z" />
        <path
           inkscape:connector-curvature="0"
           id="path906"
           style="font-size:40px;font-style:normal;font-variant:normal;font-weight:normal;font-stretch:normal;line-height:125%;letter-spacing:0px;word-spacing:0px;fill:#ffffff;fill-opacity:1;stroke:none;font-family:Game Over;-inkscape-font-specification:Game Over"
           d="m 29.333334,1019.4733 0,-3.5555 3.555554,0 0,3.5555 L 29.333334,1019.4733 z m 7.111111,24.8889 0,-28.4444 -3.555557,0 0,-3.5556 10.666667,0 0,32 L 36.444445,1044.3622 Z" />
      </g>
      <g
         style="fill:#ffffff"
         transform="matrix(0.21052631,0,0,0.21052631,30.736842,799.23333)"
         id="g908">
        <path
           inkscape:connector-curvature="0"
           id="path910"
           style="font-size:40px;font-style:normal;font-variant:normal;font-weight:normal;font-stretch:normal;line-height:125%;letter-spacing:0px;word-spacing:0px;fill:#ffffff;fill-opacity:1;stroke:none;font-family:Game Over;-inkscape-font-specification:Game Over"
           d="m 18.666666,1040.8066 0,-24.8888 -7.111111,0 0,24.8888 L 18.666666,1040.8066 z m -10.6666655,3.5556 0,-3.5556 -3.555556,0 0,-24.8888 3.555556,0 0,-3.5556 14.2222215,0 0,3.5556 3.555555,0 0,24.8888 -3.555555,0 0,3.5556 L 8.0000005,1044.3622 Z" />
        <path
           inkscape:connector-curvature="0"
           id="path912"
           style="font-size:40px;font-style:normal;font-variant:normal;font-weight:normal;font-stretch:normal;line-height:125%;letter-spacing:0px;word-spacing:0px;fill:#ffffff;fill-opacity:1;stroke:none;font-family:Game Over;-inkscape-font-specification:Game Over"
           d="m 29.333334,1019.4733 0,-3.5555 3.555554,0 0,3.5555 L 29.333334,1019.4733 z m 7.111111,24.8889 0,-28.4444 -3.555557,0 0,-3.5556 10.666667,0 0,32 L 36.444445,1044.3622 Z" />
      </g>
      <g
         style="fill:#ffffff"
         id="g914"
         transform="matrix(0.21052631,0,0,0.21052631,30.736842,807.65437)">
        <path
           d="m 18.666666,1040.8066 0,-24.8888 -7.111111,0 0,24.8888 L 18.666666,1040.8066 z m -10.6666655,3.5556 0,-3.5556 -3.555556,0 0,-24.8888 3.555556,0 0,-3.5556 14.2222215,0 0,3.5556 3.555555,0 0,24.8888 -3.555555,0 0,3.5556 L 8.0000005,1044.3622 Z"
           style="font-size:40px;font-style:normal;font-variant:normal;font-weight:normal;font-stretch:normal;line-height:125%;letter-spacing:0px;word-spacing:0px;fill:#ffffff;fill-opacity:1;stroke:none;font-family:Game Over;-inkscape-font-specification:Game Over"
           id="path916"
           inkscape:connector-curvature="0" />
        <path
           d="m 29.333334,1019.4733 0,-3.5555 3.555554,0 0,3.5555 L 29.333334,1019.4733 z m 7.111111,24.8889 0,-28.4444 -3.555557,0 0,-3.5556 10.666667,0 0,32 L 36.444445,1044.3622 Z"
           style="font-size:40px;font-style:normal;font-variant:normal;font-weight:normal;font-stretch:normal;line-height:125%;letter-spacing:0px;word-spacing:0px;fill:#ffffff;fill-opacity:1;stroke:none;font-family:Game Over;-inkscape-font-specification:Game Over"
           id="path918"
           inkscape:connector-curvature="0" />
      </g>
      <g
         style="fill:#ffffff"
         transform="matrix(0.21052631,0,0,0.21052631,30.736842,816.07543)"
         id="g920">
        <path
           inkscape:connector-curvature="0"
           id="path922"
           style="font-size:40px;font-style:normal;font-variant:normal;font-weight:normal;font-stretch:normal;line-height:125%;letter-spacing:0px;word-spacing:0px;fill:#ffffff;fill-opacity:1;stroke:none;font-family:Game Over;-inkscape-font-specification:Game Over"
           d="m 18.666666,1040.8066 0,-24.8888 -7.111111,0 0,24.8888 L 18.666666,1040.8066 z m -10.6666655,3.5556 0,-3.5556 -3.555556,0 0,-24.8888 3.555556,0 0,-3.5556 14.2222215,0 0,3.5556 3.555555,0 0,24.8888 -3.555555,0 0,3.5556 L 8.0000005,1044.3622 Z" />
        <path
           inkscape:connector-curvature="0"
           id="path924"
           style="font-size:40px;font-style:normal;font-variant:normal;font-weight:normal;font-stretch:normal;line-height:125%;letter-spacing:0px;word-spacing:0px;fill:#ffffff;fill-opacity:1;stroke:none;font-family:Game Over;-inkscape-font-specification:Game Over"
           d="m 29.333334,1019.4733 0,-3.5555 3.555554,0 0,3.5555 L 29.333334,1019.4733 z m 7.111111,24.8889 0,-28.4444 -3.555557,0 0,-3.5556 10.666667,0 0,32 L 36.444445,1044.3622 Z" />
      </g>
      <g
         style="fill:#ffffff"
         id="g926"
         transform="matrix(0.21052631,0,0,0.21052631,30.736842,824.49648)">
        <path
           d="m 18.666666,1040.8066 0,-24.8888 -7.111111,0 0,24.8888 L 18.666666,1040.8066 z m -10.6666655,3.5556 0,-3.5556 -3.555556,0 0,-24.8888 3.555556,0 0,-3.5556 14.2222215,0 0,3.5556 3.555555,0 0,24.8888 -3.555555,0 0,3.5556 L 8.0000005,1044.3622 Z"
           style="font-size:40px;font-style:normal;font-variant:normal;font-weight:normal;font-stretch:normal;line-height:125%;letter-spacing:0px;word-spacing:0px;fill:#ffffff;fill-opacity:1;stroke:none;font-family:Game Over;-inkscape-font-specification:Game Over"
           id="path928"
           inkscape:connector-curvature="0" />
        <path
           d="m 29.333334,1019.4733 0,-3.5555 3.555554,0 0,3.5555 L 29.333334,1019.4733 z m 7.111111,24.8889 0,-28.4444 -3.555557,0 0,-3.5556 10.666667,0 0,32 L 36.444445,1044.3622 Z"
           style="font-size:40px;font-style:normal;font-variant:normal;font-weight:normal;font-stretch:normal;line-height:125%;letter-spacing:0px;word-spacing:0px;fill:#ffffff;fill-opacity:1;stroke:none;font-family:Game Over;-inkscape-font-specification:Game Over"
           id="path930"
           inkscape:connector-curvature="0" />
      </g>
    </g>
    <path
       inkscape:connector-curvature="0"
       style="fill:#000000;fill-opacity:1;stroke:none"
       d="m -1e-5,1049.3622 0,1.0625 c 0,1.0773 0.86022,1.9375 1.9375,1.9375 l 44.125,0 c 1.07728,0 1.9375,-0.8602 1.9375,-1.9375 l 0,-1.0625 c 0,1.0773 -0.86022,1.9375 -1.9375,1.9375 l -44.125,0 C 0.86021,1051.2997 -1e-5,1050.4395 -1e-5,1049.3622 Z"
       id="rect846-0" />
    <path
       inkscape:connector-curvature="0"
       style="fill:#ffffff;fill-opacity:0.5372549;stroke:none"
       d="m 2.53124,1005.0185 c -0.91709,0 -1.67115,0.6395 -1.84375,1.5 0.33561,-0.2799 0.77451,-0.4375 1.25,-0.4375 l 44.125,0 c 0.47549,0 0.91439,0.1576 1.25,0.4375 -0.1726,-0.8605 -0.92666,-1.5 -1.84375,-1.5 L 2.53124,1005.0185 Z"
       id="path7515-3" />
    <path
       inkscape:connector-curvature="0"
       style="fill:#000000;fill-opacity:0.39215686;stroke:none"
       d="m 1.93749,1004.3622 c -1.07728,0 -1.9375,0.8602 -1.9375,1.9375 l 0,43.0625 c 0,0.7934 0.48002,1.449 1.15625,1.75 -0.30934,-0.3333 -0.5,-0.7824 -0.5,-1.2812 l 0,-42.9375 c 0,-1.0482 0.8269,-1.875 1.875,-1.875 l 42.9375,0 c 1.0481,0 1.875,0.8268 1.875,1.875 l 0,42.9375 c 0,0.4988 -0.19066,0.9479 -0.5,1.2812 0.67623,-0.301 1.15625,-0.9566 1.15625,-1.75 l 0,-43.0625 c 0,-1.0773 -0.86022,-1.9375 -1.9375,-1.9375 L 1.93749,1004.3622 Z"
       id="rect4280-1" />
    <path
       style="opacity:0.6;color:#000000;fill:url(#linearGradient924);fill-opacity:1;fill-rule:nonzero;stroke:none;stroke-width:1;marker:none;visibility:visible;display:inline;overflow:visible;enable-background:accumulate"
       d="m 23.99912,1028.3622 0,22.8438 20.0625,0 c 0.10844,-0.2427 0.1875,-0.4974 0.1875,-0.7813 l 0,-21.5625 c -0.64338,-0.3128 -1.36133,-0.5 -2.125,-0.5 L 23.99912,1028.3622 Z"
       id="path6270"
       inkscape:connector-curvature="0" />
    <path
       style="opacity:0.6;color:#000000;fill:url(#linearGradient942);fill-opacity:1;fill-rule:nonzero;stroke:none;stroke-width:1;marker:none;visibility:visible;display:inline;overflow:visible;enable-background:accumulate"
       d="m 3.74912,1028.3622 0,22.0625 c 0,0.1012 0.0165,0.1843 0.0312,0.2813 0.63718,0.3053 1.33979,0.5 2.09375,0.5 l 18.125,0 0,-22.8438 L 3.74912,1028.3622 Z"
       id="path6274"
       inkscape:connector-curvature="0" />
    <path
       style="opacity:0.6;color:#000000;fill:url(#linearGradient6268);fill-opacity:1;fill-rule:nonzero;stroke:none;stroke-width:1;marker:none;visibility:visible;display:inline;overflow:visible;enable-background:accumulate"
       d="m 5.87412,1005.5185 c -0.75396,0 -1.45657,0.1946 -2.09375,0.5 -0.0148,0.097 -0.0312,0.18 -0.0312,0.2812 l 0,22.0625 20.25,0 0,-22.8437 L 5.87412,1005.5185 Z"
       id="path6249"
       inkscape:connector-curvature="0" />
    <path
       style="opacity:0.6;color:#000000;fill:url(#linearGradient6280);fill-opacity:1;fill-rule:nonzero;stroke:none;stroke-width:1;marker:none;visibility:visible;display:inline;overflow:visible;enable-background:accumulate"
       d="m 23.99912,1005.5185 0,22.8437 20.25,0 0,-22.0625 c 0,-0.1012 -0.0165,-0.1843 -0.0312,-0.2812 -0.63718,-0.3054 -1.33979,-0.5 -2.09375,-0.5 L 23.99912,1005.5185 Z"
       id="path6276"
       inkscape:connector-curvature="0" />
  </g>
</svg>
