<?xml version="1.0" encoding="UTF-8" standalone="no"?>
<!-- Created with Inkscape (http://www.inkscape.org/) -->

<svg
   xmlns:dc="http://purl.org/dc/elements/1.1/"
   xmlns:cc="http://creativecommons.org/ns#"
   xmlns:rdf="http://www.w3.org/1999/02/22-rdf-syntax-ns#"
   xmlns:svg="http://www.w3.org/2000/svg"
   xmlns="http://www.w3.org/2000/svg"
   xmlns:xlink="http://www.w3.org/1999/xlink"
   xmlns:sodipodi="http://sodipodi.sourceforge.net/DTD/sodipodi-0.dtd"
   xmlns:inkscape="http://www.inkscape.org/namespaces/inkscape"
   width="48"
   height="48"
   id="svg6388"
   version="1.1"
   inkscape:version="0.48+devel r12269"
   sodipodi:docname="application-text.svg">
  <defs
     id="defs6390">
    <linearGradient
       id="linearGradient943">
      <stop
         id="stop945"
         offset="0"
         style="stop-color:#f9f9f9;stop-opacity:1" />
      <stop
         id="stop947"
         offset="1"
         style="stop-color:#ffffff;stop-opacity:1" />
    </linearGradient>
    <linearGradient
       inkscape:collect="always"
       xlink:href="#linearGradient6262"
       id="linearGradient924"
       gradientUnits="userSpaceOnUse"
       gradientTransform="matrix(-1,0,0,1,472.57085,851.206)"
       x1="23.533073"
       y1="13.07393"
       x2="11.579766"
       y2="13.07393" />
    <linearGradient
       id="linearGradient6262"
       inkscape:collect="always">
      <stop
         id="stop6264"
         offset="0"
         style="stop-color:#ffffff;stop-opacity:0.25738397" />
      <stop
         id="stop6266"
         offset="1"
         style="stop-color:#ffffff;stop-opacity:0;" />
    </linearGradient>
    <linearGradient
       inkscape:collect="always"
       xlink:href="#linearGradient6282"
       id="linearGradient942"
       gradientUnits="userSpaceOnUse"
       gradientTransform="matrix(1,0,0,-1,424.57085,876.3623)"
       x1="17.60643"
       y1="19.660906"
       x2="11.019455"
       y2="13.07393" />
    <linearGradient
       inkscape:collect="always"
       id="linearGradient6282">
      <stop
         style="stop-color:#000000;stop-opacity:0.10970464"
         offset="0"
         id="stop6284" />
      <stop
         style="stop-color:#ffffff;stop-opacity:0;"
         offset="1"
         id="stop6286" />
    </linearGradient>
    <linearGradient
       gradientUnits="userSpaceOnUse"
       y2="13.07393"
       x2="11.019455"
       y1="13.07393"
       x1="23.533073"
       id="linearGradient6268"
       xlink:href="#linearGradient6262"
       inkscape:collect="always"
       gradientTransform="translate(424.57085,828.3623)" />
    <linearGradient
       y2="13.07393"
       x2="11.579766"
       y1="21.890017"
       x1="20.395853"
       gradientTransform="matrix(-1,0,0,1,472.57085,828.3623)"
       gradientUnits="userSpaceOnUse"
       id="linearGradient6280"
       xlink:href="#linearGradient6288"
       inkscape:collect="always" />
    <linearGradient
       inkscape:collect="always"
       id="linearGradient6288">
      <stop
         style="stop-color:#000000;stop-opacity:0.13080169"
         offset="0"
         id="stop6290" />
      <stop
         style="stop-color:#ffffff;stop-opacity:0;"
         offset="1"
         id="stop6292" />
    </linearGradient>
    <linearGradient
       y2="-1001.0899"
       x2="92.14286"
       y1="-1049.092"
       x1="92.14286"
       gradientTransform="translate(359.678,172.72582)"
       gradientUnits="userSpaceOnUse"
       id="linearGradient4117"
       xlink:href="#linearGradient943"
       inkscape:collect="always" />
  </defs>
  <sodipodi:namedview
     id="base"
     pagecolor="#ffffff"
     bordercolor="#666666"
     borderopacity="1.0"
     inkscape:pageopacity="0.0"
     inkscape:pageshadow="2"
     inkscape:zoom="2.8"
     inkscape:cx="-16.188921"
     inkscape:cy="15.058149"
     inkscape:document-units="px"
     inkscape:current-layer="layer1"
     showgrid="false"
     fit-margin-top="0"
     fit-margin-left="0"
     fit-margin-right="0"
     fit-margin-bottom="0"
     inkscape:window-width="1366"
     inkscape:window-height="716"
     inkscape:window-x="0"
     inkscape:window-y="28"
     inkscape:window-maximized="1" />
  <metadata
     id="metadata6393">
    <rdf:RDF>
      <cc:Work
         rdf:about="">
        <dc:format>image/svg+xml</dc:format>
        <dc:type
           rdf:resource="http://purl.org/dc/dcmitype/StillImage" />
        <dc:title />
      </cc:Work>
    </rdf:RDF>
  </metadata>
  <g
     inkscape:label="Capa 1"
     inkscape:groupmode="layer"
     id="layer1"
     transform="translate(-424.57144,-828.36218)">
    <rect
       style="fill:url(#linearGradient4117);fill-opacity:1;stroke:none"
       id="rect2991-1-7-3"
       width="48"
       height="48"
       x="424.57144"
       y="-876.36218"
       ry="1.9445436"
       transform="scale(1,-1)" />
    <g
       transform="matrix(1.1206564,0,0,1.1206564,415.45075,850.22974)"
       style="font-size:40px;font-style:normal;font-variant:normal;font-weight:normal;font-stretch:normal;line-height:125%;letter-spacing:0px;word-spacing:0px;fill:#000000;fill-opacity:1;stroke:none;font-family:serif;-inkscape-font-specification:serif"
       id="text909">
      <path
         d="m 31.537144,11.629414 q 0,0.9375 0.253906,1.503906 0.273437,0.566406 0.703125,0.878906 0.449219,0.292969 1.054687,0.390625 0.605469,0.09766 1.269532,0.09766 l 0.917968,0 0,1.679688 -12.441406,0 0,-1.679688 0.917969,0 q 0.664062,0 1.25,-0.07813 0.605469,-0.09766 1.054687,-0.371093 0.449219,-0.273438 0.703125,-0.800782 0.273438,-0.546875 0.273438,-1.425781 l 0,-22.207031 -3.828125,0 q -0.878906,0 -1.484375,0.273437 -0.585938,0.2539066 -0.976563,0.7031254 -0.371093,0.4492187 -0.566406,1.0546875 -0.175781,0.5859375 -0.253906,1.25 l -0.214844,1.71875 -2.070312,0 0.195312,-6.9921879 22.519531,0 0.195313,6.9921879 -2.070313,0 -0.195312,-1.71875 q -0.07813,-0.6640625 -0.273438,-1.25 -0.195312,-0.6054688 -0.566406,-1.0546875 -0.371094,-0.4492188 -0.976562,-0.7031254 -0.605469,-0.273437 -1.503907,-0.273437 l -3.886718,0 L 31.537144,11.629414 Z"
         id="path914"
         inkscape:connector-curvature="0" />
    </g>
    <path
       inkscape:connector-curvature="0"
       style="fill:#000000;fill-opacity:1;stroke:none"
       d="m 424.57142,873.3622 0,1.0625 c 0,1.0773 0.86022,1.9375 1.9375,1.9375 l 44.125,0 c 1.07728,0 1.9375,-0.8602 1.9375,-1.9375 l 0,-1.0625 c 0,1.0773 -0.86022,1.9375 -1.9375,1.9375 l -44.125,0 C 425.43164,875.2997 424.57142,874.4395 424.57142,873.3622 Z"
       id="rect846-0" />
    <path
       inkscape:connector-curvature="0"
       style="fill:#ffffff;fill-opacity:0.5372549;stroke:none"
       d="m 427.10267,829.0185 c -0.91709,0 -1.67115,0.6395 -1.84375,1.5 0.33561,-0.2799 0.77451,-0.4375 1.25,-0.4375 l 44.125,0 c 0.47549,0 0.91439,0.1576 1.25,0.4375 -0.1726,-0.8605 -0.92666,-1.5 -1.84375,-1.5 L 427.10267,829.0185 Z"
       id="path7515-3" />
    <path
       inkscape:connector-curvature="0"
       style="fill:#000000;fill-opacity:0.39215686;stroke:none"
       d="m 426.50892,828.3622 c -1.07728,0 -1.9375,0.8602 -1.9375,1.9375 l 0,43.0625 c 0,0.7934 0.48002,1.449 1.15625,1.75 -0.30934,-0.3333 -0.5,-0.7824 -0.5,-1.2812 l 0,-42.9375 c 0,-1.0482 0.8269,-1.875 1.875,-1.875 l 42.9375,0 c 1.0481,0 1.875,0.8268 1.875,1.875 l 0,42.9375 c 0,0.4988 -0.19066,0.9479 -0.5,1.2812 0.67623,-0.301 1.15625,-0.9566 1.15625,-1.75 l 0,-43.0625 c 0,-1.0773 -0.86022,-1.9375 -1.9375,-1.9375 L 426.50892,828.3622 Z"
       id="rect4280-1" />
    <path
       style="opacity:0.6;color:#000000;fill:url(#linearGradient924);fill-opacity:1;fill-rule:nonzero;stroke:none;stroke-width:1;marker:none;visibility:visible;display:inline;overflow:visible;enable-background:accumulate"
       d="m 448.57055,852.3622 0,22.8438 20.0625,0 c 0.10844,-0.2427 0.1875,-0.4974 0.1875,-0.7813 l 0,-21.5625 c -0.64338,-0.3128 -1.36133,-0.5 -2.125,-0.5 L 448.57055,852.3622 Z"
       id="path6270"
       inkscape:connector-curvature="0" />
    <path
       style="opacity:0.6;color:#000000;fill:url(#linearGradient942);fill-opacity:1;fill-rule:nonzero;stroke:none;stroke-width:1;marker:none;visibility:visible;display:inline;overflow:visible;enable-background:accumulate"
       d="m 428.32055,852.3622 0,22.0625 c 0,0.1012 0.0165,0.1843 0.0312,0.2813 0.63718,0.3053 1.33979,0.5 2.09375,0.5 l 18.125,0 0,-22.8438 L 428.32055,852.3622 Z"
       id="path6274"
       inkscape:connector-curvature="0" />
    <path
       style="opacity:0.6;color:#000000;fill:url(#linearGradient6268);fill-opacity:1;fill-rule:nonzero;stroke:none;stroke-width:1;marker:none;visibility:visible;display:inline;overflow:visible;enable-background:accumulate"
       d="m 430.44555,829.5185 c -0.75396,0 -1.45657,0.1946 -2.09375,0.5 -0.0148,0.097 -0.0312,0.18 -0.0312,0.2812 l 0,22.0625 20.25,0 0,-22.8437 L 430.44555,829.5185 Z"
       id="path6249"
       inkscape:connector-curvature="0" />
    <path
       style="opacity:0.6;color:#000000;fill:url(#linearGradient6280);fill-opacity:1;fill-rule:nonzero;stroke:none;stroke-width:1;marker:none;visibility:visible;display:inline;overflow:visible;enable-background:accumulate"
       d="m 448.57055,829.5185 0,22.8437 20.25,0 0,-22.0625 c 0,-0.1012 -0.0165,-0.1843 -0.0312,-0.2812 -0.63718,-0.3054 -1.33979,-0.5 -2.09375,-0.5 L 448.57055,829.5185 Z"
       id="path6276"
       inkscape:connector-curvature="0" />
  </g>
</svg>
